<svg version="1.2" baseProfile="tiny-ps" xmlns="http://www.w3.org/2000/svg" viewBox="0 0 67 17" width="67" height="17">
	<title>Group 4</title>
	<style>
		tspan { white-space:pre }
		.shp0 { fill: #ffc045 } 
		.shp1 { fill: #dcdcdc } 
	</style>
	<g id="Group 4">
		<g id="Design">
			<g id="Dots">
				<path id="Ellipse" class="shp0" d="M8.5 0C13.19 0 17 3.81 17 8.5C17 13.19 13.19 17 8.5 17C3.81 17 0 13.19 0 8.5C0 3.81 3.81 0 8.5 0Z" />
				<path id="Ellipse" class="shp1" d="M33.5 0C38.19 0 42 3.81 42 8.5C42 13.19 38.19 17 33.5 17C28.81 17 25 13.19 25 8.5C25 3.81 28.81 0 33.5 0Z" />
				<path id="Ellipse" class="shp1" d="M58.5 0C63.19 0 67 3.81 67 8.5C67 13.19 63.19 17 58.5 17C53.81 17 50 13.19 50 8.5C50 3.81 53.81 0 58.5 0Z" />
			</g>
		</g>
	</g>
</svg>